<svg width="151" height="64" viewBox="0 0 151 64" fill="none" xmlns="http://www.w3.org/2000/svg">
<rect x="0.541504" y="1.28589" width="149" height="62" rx="31" fill="#EFC5C5"/>
<rect x="0.541504" y="1.28589" width="149" height="62" rx="31" stroke="black"/>
<path d="M33.7375 42.7859H25.5455V21.3459H33.7375C40.6175 21.3459 44.8415 25.3459 44.8415 32.0659C44.8415 38.7859 40.6175 42.7859 33.7375 42.7859ZM33.6735 25.6659H30.3455V38.4659H33.6735C38.0255 38.4659 39.6895 37.1539 39.6895 32.0659C39.6895 26.9779 38.0255 25.6659 33.6735 25.6659ZM51.969 42.7859H47.201V26.6899H51.649V29.2819H51.841C52.641 27.6499 54.081 26.3699 56.353 26.3699C59.713 26.3699 60.961 28.8659 60.961 32.0979V33.5699H56.193V32.7059C56.193 30.9779 55.649 30.4339 54.145 30.4339C52.673 30.4339 51.969 30.9459 51.969 32.7059V42.7859ZM70.3453 43.1059C64.8093 43.1059 62.2813 39.8739 62.2813 34.7859C62.2813 29.6339 65.3533 26.3699 70.3773 26.3699C75.2093 26.3699 78.0573 29.2499 78.0573 33.4419C78.0573 34.3379 77.9293 35.2659 77.8333 35.8099H66.7933C66.8893 38.0499 67.7853 38.9459 70.4093 38.9459C72.3293 38.9459 73.1613 38.5299 73.1613 37.5379V37.3459H77.8973V37.6659C77.8973 41.0899 74.9533 43.1059 70.3453 43.1059ZM70.2173 30.3059C67.9133 30.3059 67.0173 31.2019 66.8253 32.8979H73.4493C73.5453 31.2339 72.4573 30.3059 70.2173 30.3059ZM84.9303 43.1059C82.0823 43.1059 79.8743 41.6019 79.8743 38.6899C79.8743 36.1939 81.6663 34.6579 84.9943 34.1459L90.4983 33.3139V32.8019C90.4983 30.9139 89.4743 30.5619 87.5863 30.5619C85.6343 30.5619 84.8663 31.1059 84.8663 32.7379V33.0899H80.2903V32.7379C80.2903 28.8979 83.2663 26.3699 87.8103 26.3699C92.5463 26.3699 95.0423 28.9619 95.0423 33.2499V42.7859H90.5943V40.6099H90.4023C89.5383 41.7939 87.9063 43.1059 84.9303 43.1059ZM84.4503 38.3059C84.4503 39.1699 85.1223 39.4579 86.5303 39.4579C88.4823 39.4579 90.4983 38.9459 90.4983 36.4499L85.8903 37.1539C84.8983 37.3139 84.4503 37.6339 84.4503 38.3059ZM102.657 42.7859H97.8885V26.6899H102.337V29.5059H102.529C103.393 27.6819 105.057 26.3699 107.809 26.3699C110.561 26.3699 112.225 27.6179 113.025 29.5059H113.185C114.081 27.7459 115.681 26.3699 118.657 26.3699C122.817 26.3699 124.513 29.1539 124.513 32.5779V42.7859H119.713V33.5379C119.713 31.2979 119.041 30.4979 116.705 30.4979C114.529 30.4979 113.601 31.2019 113.601 33.5379V42.7859H108.801V33.5379C108.801 31.2979 108.097 30.4979 105.793 30.4979C103.617 30.4979 102.657 31.2019 102.657 33.4739V42.7859Z" fill="black"/>
</svg>
