<svg width="99" height="64" viewBox="0 0 99 64" fill="none" xmlns="http://www.w3.org/2000/svg">
<rect x="0.5" y="1.18042" width="98" height="62" rx="31" fill="#99D5D9"/>
<rect x="0.5" y="1.18042" width="98" height="62" rx="31" stroke="black"/>
<path d="M36.576 42.6804H25.504V21.2404H36.064C40.64 21.2404 43.104 22.8724 43.104 26.5844C43.104 29.1444 41.664 30.8084 38.816 31.1604V31.4804C42.272 31.7364 43.968 33.9124 43.968 36.7924C43.968 40.4084 41.472 42.6804 36.576 42.6804ZM30.304 25.5604V29.7204H35.744C37.536 29.7204 38.304 29.3364 38.304 27.6404C38.304 25.9124 37.504 25.5604 35.744 25.5604H30.304ZM30.304 33.6244V38.3604H36.416C38.176 38.3604 39.136 38.0404 39.136 36.0244C39.136 33.9444 38.208 33.6244 36.416 33.6244H30.304ZM53.4913 43.0004C47.9553 43.0004 45.4273 39.7684 45.4273 34.6804C45.4273 29.5284 48.4993 26.2644 53.5233 26.2644C58.3553 26.2644 61.2033 29.1444 61.2033 33.3364C61.2033 34.2324 61.0753 35.1604 60.9792 35.7044H49.9393C50.0353 37.9444 50.9313 38.8404 53.5553 38.8404C55.4753 38.8404 56.3073 38.4244 56.3073 37.4324V37.2404H61.0433V37.5604C61.0433 40.9844 58.0993 43.0004 53.4913 43.0004ZM53.3633 30.2004C51.0593 30.2004 50.1633 31.0964 49.9713 32.7924H56.5953C56.6913 31.1284 55.6033 30.2004 53.3633 30.2004ZM70.8023 42.7444C66.6102 42.7444 64.5943 41.2084 64.5943 37.4004V30.5524H62.0343V26.5844H64.7223L65.6183 22.8404H69.3943V26.5844H73.9383V30.5524H69.3943V36.8564C69.3943 38.2644 69.8743 38.4244 71.9543 38.4244H73.9383V42.4244C73.1703 42.5844 71.9223 42.7444 70.8023 42.7444Z" fill="black"/>
</svg>
