<svg width="132" height="130" viewBox="0 0 132 130" fill="none" xmlns="http://www.w3.org/2000/svg">
<rect x="0.803326" y="84.1686" width="121" height="62" rx="31" transform="rotate(-43.5821 0.803326 84.1686)" fill="#99D5D9"/>
<rect x="0.803326" y="84.1686" width="121" height="62" rx="31" transform="rotate(-43.5821 0.803326 84.1686)" stroke="black"/>
<path d="M51.0028 93.684L47.5257 96.9931L32.7451 81.4623L39.8847 74.6676C43.2227 71.4909 47.5295 71.2353 50.8166 74.6892C54.1256 78.1663 53.6132 82.4088 50.2752 85.5856L46.6127 89.0711L51.0028 93.684ZM43.002 77.6646L39.2004 81.2825L43.6566 85.965L47.4582 82.347C49.0576 80.8249 49.1275 79.8307 47.3627 77.9762C45.5758 76.0986 44.6014 76.1424 43.002 77.6646ZM66.3176 79.5508C63.2578 82.4628 60.0636 81.6594 57.7031 79.1791L50.6658 71.7846L54.1197 68.4975L60.4952 75.1967C62.0395 76.8193 63.1473 76.8694 64.8858 75.2148C66.5548 73.6265 66.766 72.4094 65.0894 70.6477L58.8022 64.0413L62.256 60.7543L73.3525 72.414L70.1304 75.4805L68.1891 73.4406L68.0732 73.5509C68.7037 75.513 68.3575 77.6095 66.3176 79.5508ZM80.7802 65.7869C77.1177 69.2725 74.0312 69.6035 71.3399 66.7755L71.2737 66.7059L74.5885 63.5513L75.0517 64.0381C75.868 64.8957 76.5544 64.5959 78.2466 62.9854C79.6606 61.6397 79.6939 61.2105 79.1424 60.631C78.5467 60.0051 78.0898 60.1749 76.272 61.3748L74.2015 62.7269C71.5095 64.4936 69.3312 64.7113 67.2796 62.5555C65.228 60.3997 65.5337 57.1932 68.8485 54.0386C71.6997 51.3251 75.1581 50.5959 77.651 53.2153L77.9598 53.5398L74.645 56.6945L74.3362 56.3699C73.6082 55.605 72.8866 55.4966 71.403 56.9085C70.0122 58.2321 69.9745 58.8423 70.5039 59.3986C71.0334 59.955 71.3964 59.9187 73.052 58.8732L75.6037 57.2841C78.502 55.4092 80.5809 55.5512 82.3899 57.452C84.4636 59.631 84.0023 62.7205 80.7802 65.7869ZM90.5261 56.0701L87.0722 59.3571L72.2916 43.8262L75.7455 40.5392L81.1504 46.2184L81.2894 46.086C80.8785 44.4009 81.2489 42.2372 83.1033 40.4724C86.1168 37.6045 89.2878 38.4299 91.6483 40.9102L98.6856 48.3048L95.2085 51.6139L88.833 44.9147C87.2888 43.2921 86.2041 43.22 84.4424 44.8966C82.7734 46.4849 82.5843 47.7251 84.2609 49.4868L90.5261 56.0701Z" fill="black"/>
</svg>
