<svg width="200" height="178" viewBox="0 0 200 178" fill="none" xmlns="http://www.w3.org/2000/svg">
<rect x="0.895886" y="128.622" width="204" height="62" rx="31" transform="rotate(-38.833 0.895886 128.622)" fill="#EFC5C5"/>
<rect x="0.895886" y="128.622" width="204" height="62" rx="31" transform="rotate(-38.833 0.895886 128.622)" stroke="black"/>
<path d="M50.1352 142.261L46.3961 145.27L32.9521 128.569L38.2118 124.335L47.4088 129.79L52.2062 132.994L52.4555 132.793L50.3253 127.442L46.8366 117.393L52.0963 113.159L65.5403 129.86L61.8012 132.87L55.4403 124.968L53.0513 121.592L52.7771 121.813L54.4335 125.861L57.3135 134.593L52.7768 138.245L44.8615 133.566L41.2358 131.103L40.9865 131.304L43.7744 134.359L50.1352 142.261ZM73.8302 123.598C69.792 126.848 65.3523 126.232 62.1618 122.269C58.9513 118.28 59.2976 113.811 63.3359 110.561C67.3491 107.33 71.739 107.987 74.9495 111.975C78.14 115.938 77.8435 120.367 73.8302 123.598ZM71.1815 120.307C73.2006 118.682 73.2565 117.322 71.3101 114.904C69.3437 112.462 68.0036 112.226 65.9845 113.851C63.9405 115.496 63.8846 116.856 65.8511 119.299C67.7974 121.717 69.1375 121.953 71.1815 120.307ZM87.4188 112.331C84.1533 114.959 81.6198 115.027 79.232 112.061L74.9379 106.726L72.9437 108.331L70.4556 105.24L72.5495 103.555L70.8997 100.077L73.8412 97.7088L76.1889 100.625L79.7285 97.7759L82.2167 100.867L78.677 103.716L82.6299 108.627C83.5128 109.724 83.9871 109.547 85.6073 108.243L87.1528 106.999L89.661 110.115C89.1631 110.721 88.2913 111.628 87.4188 112.331ZM83.7811 92.1722L80.1168 95.1218L77.8598 92.4199L81.5739 89.4302L83.7811 92.1722ZM95.0927 106.071L91.3536 109.081L81.2606 96.5427L84.9997 93.5328L95.0927 106.071ZM105.335 97.8264L100.574 101.659L85.6201 93.0334L89.783 89.6824L99.9778 96.2234L100.252 96.0027L96.0397 84.6459L100.128 81.3551L105.335 97.8264ZM114.4 90.9405C112.181 92.7263 109.518 92.9393 107.692 90.6709C106.127 88.7266 106.56 86.4064 108.831 83.9207L112.597 79.8213L112.276 79.4225C111.092 77.9518 110.074 78.3197 108.603 79.5035C107.082 80.7275 106.825 81.6329 107.849 82.9042L108.069 83.1784L104.505 86.0478L104.284 85.7736C101.876 82.7823 102.609 78.9469 106.149 76.0976C109.838 73.1279 113.408 73.5819 116.097 76.9221L122.076 84.3504L118.611 87.1396L117.247 85.4445L117.097 85.5649C117.167 87.029 116.718 89.0744 114.4 90.9405ZM111.016 87.5024C111.558 88.1754 112.262 87.9784 113.359 87.0955C114.879 85.8715 116.129 84.2085 114.563 82.2642L111.415 85.702C110.743 86.4487 110.595 86.9789 111.016 87.5024ZM130.019 78.0387C126.754 80.6673 124.22 80.7349 121.832 77.7686L117.538 72.4341L115.544 74.0394L113.056 70.9484L115.15 69.2629L113.5 65.7846L116.441 63.4168L118.789 66.3333L122.329 63.484L124.817 66.575L121.277 69.4243L125.23 74.335C126.113 75.4318 126.587 75.2554 128.208 73.9512L129.753 72.7071L132.261 75.823C131.763 76.4292 130.892 77.3364 130.019 78.0387ZM126.381 57.8802L122.717 60.8299L120.46 58.128L124.174 55.1382L126.381 57.8802ZM137.693 71.7793L133.954 74.7892L123.861 62.2507L127.6 59.2409L137.693 71.7793ZM145.813 65.6541C141.774 68.9048 137.335 68.2885 134.144 64.325C130.934 60.3367 131.28 55.8678 135.318 52.6172C139.331 49.3866 143.721 50.043 146.932 54.0314C150.122 57.9948 149.826 62.4235 145.813 65.6541ZM143.164 62.3637C145.183 60.7384 145.239 59.3789 143.292 56.9609C141.326 54.5181 139.986 54.2822 137.967 55.9076C135.923 57.5529 135.867 58.9125 137.833 61.3553C139.78 63.7733 141.12 64.0091 143.164 62.3637ZM157.389 55.9243L153.675 58.9141L143.582 46.3757L147.047 43.5865L148.813 45.7801L148.962 45.6597C148.492 43.6971 149.015 41.5915 151.209 39.8258C154.474 37.1972 157.616 38.2421 159.763 40.9094L166.164 48.8612L162.425 51.871L156.626 44.667C155.221 42.9221 154.146 42.7605 152.252 44.2854C150.457 45.7302 150.146 46.9255 151.671 48.82L157.389 55.9243Z" fill="black"/>
</svg>
