<svg width="132" height="64" viewBox="0 0 132 64" fill="none" xmlns="http://www.w3.org/2000/svg">
<rect x="0.745483" y="1.18042" width="130" height="62" rx="31" fill="#D9CB99"/>
<rect x="0.745483" y="1.18042" width="130" height="62" rx="31" stroke="black"/>
<path d="M34.6455 43.0004C28.5015 43.0004 25.1415 38.8084 25.1415 31.9604C25.1415 25.2724 29.0455 20.9204 35.5735 20.9204C41.9415 20.9204 45.3655 24.0564 45.3655 29.1444V29.3044H40.2775V29.1764C40.2775 26.4884 38.9655 25.5604 35.4775 25.5604C31.7975 25.5604 30.2615 26.9044 30.2615 31.9604C30.2615 37.1124 31.8935 38.4244 35.9255 38.4244C39.3175 38.4244 40.8215 37.8484 40.8215 35.2884H34.9655V31.2884H45.4295V42.6804H40.9815V39.4164H40.7895C40.1495 41.0484 38.4535 43.0004 34.6455 43.0004ZM53.2355 42.6804H48.4675V26.5844H52.9155V29.1764H53.1075C53.9075 27.5444 55.3475 26.2644 57.6195 26.2644C60.9795 26.2644 62.2275 28.7604 62.2275 31.9924V33.4644H57.4595V32.6004C57.4595 30.8724 56.9155 30.3284 55.4115 30.3284C53.9395 30.3284 53.2355 30.8404 53.2355 32.6004V42.6804ZM71.8037 43.0004C66.6197 43.0004 63.5477 39.7364 63.5477 34.6484C63.5477 29.5284 66.6197 26.2644 71.8037 26.2644C76.9557 26.2644 79.9637 29.5284 79.9637 34.6484C79.9637 39.7364 76.9557 43.0004 71.8037 43.0004ZM71.8037 38.7764C74.3957 38.7764 75.2917 37.7524 75.2917 34.6484C75.2917 31.5124 74.3957 30.4884 71.8037 30.4884C69.1797 30.4884 68.2837 31.5124 68.2837 34.6484C68.2837 37.7524 69.1797 38.7764 71.8037 38.7764ZM90.2987 42.6804H84.0267L80.2827 26.5844H85.5627L86.6187 34.0084L87.2267 38.8404H87.5787L88.4747 34.0084L90.4267 26.5844H96.5387L98.5227 34.0404L99.3867 38.8404H99.7067L100.283 34.0404L101.403 26.5844H106.459L102.715 42.6804H96.4427L94.3627 35.0324L93.5627 30.8084H93.2107L92.4107 35.0324L90.2987 42.6804Z" fill="black"/>
</svg>
