<svg width="144" height="95" viewBox="0 0 144 95" fill="none" xmlns="http://www.w3.org/2000/svg">
<rect x="17.2655" y="0.617084" width="130" height="62" rx="31" transform="rotate(15.0118 17.2655 0.617084)" fill="#99D5D9"/>
<rect x="17.2655" y="0.617084" width="130" height="62" rx="31" transform="rotate(15.0118 17.2655 0.617084)" stroke="black"/>
<path d="M39.1765 49.7906C33.2422 48.1992 31.0826 43.2799 32.8564 36.6656C34.5887 30.2059 39.4867 27.0136 45.7919 28.7045C51.9426 30.3539 54.4375 34.2698 53.1196 39.1841L53.0781 39.3387L48.1638 38.0208L48.1969 37.8971C48.8932 35.3009 47.8663 34.0647 44.4974 33.1613C40.9429 32.2081 39.1112 33.1083 37.8017 37.9918C36.4672 42.968 37.7037 44.6579 41.5981 45.7023C44.8743 46.5809 46.4762 46.4141 47.1393 43.9415L41.4831 42.4246L42.5192 38.5612L52.6261 41.2715L49.6753 52.2747L45.3791 51.1226L46.2246 47.97L46.0391 47.9203C44.9982 49.3308 42.8545 50.7769 39.1765 49.7906ZM59.9447 55.36C54.9376 54.0172 52.8159 50.0689 54.1337 45.1546C55.4599 40.2093 59.2725 37.8524 64.2796 39.1951C69.2558 40.5296 71.3157 44.4613 69.9895 49.4066C68.6716 54.321 64.9208 56.6944 59.9447 55.36ZM61.0388 51.2801C63.5423 51.9515 64.673 51.1945 65.4769 48.1965C66.2892 45.1675 65.689 43.9464 63.1855 43.275C60.6511 42.5953 59.5204 43.3523 58.7081 46.3813C57.9041 49.3793 58.5043 50.6005 61.0388 51.2801ZM74.3596 59.2256C71.6088 58.4879 69.8657 56.4634 70.62 53.6507C71.2665 51.2399 73.3952 50.2205 76.7422 50.588L82.2739 51.21L82.4065 50.7155C82.8955 48.8919 81.9976 48.2867 80.1741 47.7977C78.2887 47.2921 77.406 47.6186 76.9833 49.1949L76.8921 49.5349L72.4723 48.3496L72.5634 48.0096C73.5581 44.3007 77.0873 42.6298 81.4762 43.8068C86.0506 45.0335 87.79 48.1835 86.6794 52.3252L84.2094 61.5357L79.9132 60.3836L80.4768 58.2819L80.2913 58.2322C79.1502 59.152 77.234 59.9965 74.3596 59.2256ZM75.1393 54.4651C74.9155 55.2996 75.4899 55.7519 76.8499 56.1166C78.7353 56.6222 80.8151 56.6498 81.4616 54.239L76.8285 53.7254C75.8289 53.623 75.3133 53.816 75.1393 54.4651ZM91.5638 63.508L86.9585 62.273L92.5118 41.5647L97.1171 42.7997L91.5638 63.508ZM101.101 66.3969C96.2178 65.0873 94.3269 62.6256 95.3381 58.8548L95.363 58.7621L99.7828 59.9473L99.6087 60.5964C99.302 61.74 99.9157 62.1696 102.172 62.7747C104.057 63.2803 104.441 63.085 104.648 62.3123C104.872 61.4778 104.489 61.1763 102.518 60.2501L100.285 59.1874C97.3741 57.8105 96.0532 56.0648 96.824 53.1903C97.5948 50.3159 100.491 48.9059 104.911 50.0912C108.712 51.1107 111.137 53.6825 110.2 57.1751L110.084 57.6078L105.665 56.4225L105.781 55.9898C106.054 54.9698 105.771 54.2975 103.792 53.767C101.938 53.2697 101.398 53.5554 101.199 54.2972C101 55.039 101.22 55.33 102.975 56.1982L105.661 57.548C108.771 59.0447 109.733 60.893 109.054 63.4275C108.275 66.3328 105.397 67.5491 101.101 66.3969Z" fill="black"/>
</svg>
