<svg width="213" height="64" viewBox="0 0 213 64" fill="none" xmlns="http://www.w3.org/2000/svg">
<rect x="0.5" y="1.18042" width="212" height="62" rx="31" fill="#D9CB99"/>
<rect x="0.5" y="1.18042" width="212" height="62" rx="31" stroke="black"/>
<path d="M35.776 42.6804H30.976V25.5604H24.064V21.2404H42.688V25.5604H35.776V42.6804ZM49.96 43.0004C44.424 43.0004 41.896 39.7684 41.896 34.6804C41.896 29.5284 44.968 26.2644 49.992 26.2644C54.824 26.2644 57.672 29.1444 57.672 33.3364C57.672 34.2324 57.544 35.1604 57.448 35.7044H46.408C46.504 37.9444 47.4 38.8404 50.024 38.8404C51.944 38.8404 52.776 38.4244 52.776 37.4324V37.2404H57.512V37.5604C57.512 40.9844 54.568 43.0004 49.96 43.0004ZM49.832 30.2004C47.528 30.2004 46.632 31.0964 46.44 32.7924H53.064C53.16 31.1284 52.072 30.2004 49.832 30.2004ZM64.545 43.0004C61.697 43.0004 59.489 41.4964 59.489 38.5844C59.489 36.0884 61.281 34.5524 64.609 34.0404L70.113 33.2084V32.6964C70.113 30.8084 69.089 30.4564 67.201 30.4564C65.249 30.4564 64.481 31.0004 64.481 32.6324V32.9844H59.905V32.6324C59.905 28.7924 62.881 26.2644 67.425 26.2644C72.161 26.2644 74.657 28.8564 74.657 33.1444V42.6804H70.209V40.5044H70.017C69.153 41.6884 67.521 43.0004 64.545 43.0004ZM64.065 38.2004C64.065 39.0644 64.737 39.3524 66.145 39.3524C68.097 39.3524 70.113 38.8404 70.113 36.3444L65.505 37.0484C64.513 37.2084 64.065 37.5284 64.065 38.2004ZM82.2713 42.6804H77.5033V26.5844H81.9513V29.4004H82.1433C83.0073 27.5764 84.6713 26.2644 87.4233 26.2644C90.1753 26.2644 91.8393 27.5124 92.6393 29.4004H92.7993C93.6953 27.6404 95.2953 26.2644 98.2713 26.2644C102.431 26.2644 104.127 29.0484 104.127 32.4724V42.6804H99.3273V33.4324C99.3273 31.1924 98.6553 30.3924 96.3193 30.3924C94.1433 30.3924 93.2153 31.0964 93.2153 33.4324V42.6804H88.4153V33.4324C88.4153 31.1924 87.7113 30.3924 85.4073 30.3924C83.2313 30.3924 82.2713 31.0964 82.2713 33.3684V42.6804ZM121.866 42.6804H115.594L111.85 26.5844H117.13L118.186 34.0084L118.794 38.8404H119.146L120.042 34.0084L121.994 26.5844H128.106L130.09 34.0404L130.954 38.8404H131.274L131.85 34.0404L132.97 26.5844H138.026L134.282 42.6804H128.01L125.93 35.0324L125.13 30.8084H124.778L123.978 35.0324L121.866 42.6804ZM146.527 43.0004C141.343 43.0004 138.271 39.7364 138.271 34.6484C138.271 29.5284 141.343 26.2644 146.527 26.2644C151.679 26.2644 154.687 29.5284 154.687 34.6484C154.687 39.7364 151.679 43.0004 146.527 43.0004ZM146.527 38.7764C149.119 38.7764 150.015 37.7524 150.015 34.6484C150.015 31.5124 149.119 30.4884 146.527 30.4884C143.903 30.4884 143.007 31.5124 143.007 34.6484C143.007 37.7524 143.903 38.7764 146.527 38.7764ZM161.646 42.6804H156.878V26.5844H161.326V29.1764H161.518C162.318 27.5444 163.758 26.2644 166.03 26.2644C169.39 26.2644 170.638 28.7604 170.638 31.9924V33.4644H165.87V32.6004C165.87 30.8724 165.326 30.3284 163.822 30.3284C162.35 30.3284 161.646 30.8404 161.646 32.6004V42.6804ZM177.303 42.6804H172.535V21.2404H177.303V32.5364H179.671L183.319 26.5844H188.823L183.575 34.2644L188.791 42.6804H183.287L179.767 36.8244H177.303V42.6804Z" fill="black"/>
</svg>
