<svg width="265" height="64" viewBox="0 0 265 64" fill="none" xmlns="http://www.w3.org/2000/svg">
<rect x="1.18604" y="1.18042" width="263" height="62" rx="31" fill="#D9CB99"/>
<rect x="1.18604" y="1.18042" width="263" height="62" rx="31" stroke="black"/>
<path d="M29.742 42.6804H24.75L32.654 21.2404H39.63L47.534 42.6804H42.318L40.59 37.9124H31.502L29.742 42.6804ZM34.286 30.2964L33.07 33.6244H39.022L37.806 30.2964L36.238 25.4644H35.918L34.286 30.2964ZM56.0545 43.0004C50.7425 43.0004 47.8945 39.7684 47.8945 34.6804C47.8945 29.5284 50.9345 26.2644 56.3105 26.2644C60.5985 26.2644 63.7345 28.8884 63.7345 32.8564V33.2404H58.9345V32.9844C58.9345 31.1604 57.9105 30.5524 55.9265 30.5524C53.6225 30.5524 52.6305 31.6404 52.6305 34.6484C52.6305 37.6244 53.6225 38.7124 55.9265 38.7124C57.9105 38.7124 58.9345 38.1044 58.9345 36.2804V36.0244H63.7345V36.4084C63.7345 40.3764 60.5025 43.0004 56.0545 43.0004ZM73.6795 43.0004C68.3675 43.0004 65.5195 39.7684 65.5195 34.6804C65.5195 29.5284 68.5595 26.2644 73.9355 26.2644C78.2235 26.2644 81.3595 28.8884 81.3595 32.8564V33.2404H76.5595V32.9844C76.5595 31.1604 75.5355 30.5524 73.5515 30.5524C71.2475 30.5524 70.2555 31.6404 70.2555 34.6484C70.2555 37.6244 71.2475 38.7124 73.5515 38.7124C75.5355 38.7124 76.5595 38.1044 76.5595 36.2804V36.0244H81.3595V36.4084C81.3595 40.3764 78.1275 43.0004 73.6795 43.0004ZM91.4005 43.0004C86.2165 43.0004 83.1445 39.7364 83.1445 34.6484C83.1445 29.5284 86.2165 26.2644 91.4005 26.2644C96.5525 26.2644 99.5605 29.5284 99.5605 34.6484C99.5605 39.7364 96.5525 43.0004 91.4005 43.0004ZM91.4005 38.7764C93.9925 38.7764 94.8885 37.7524 94.8885 34.6484C94.8885 31.5124 93.9925 30.4884 91.4005 30.4884C88.7765 30.4884 87.8805 31.5124 87.8805 34.6484C87.8805 37.7524 88.7765 38.7764 91.4005 38.7764ZM107.64 43.0004C103.416 43.0004 101.656 40.2164 101.656 36.7924V26.5844H106.424V35.8324C106.424 38.0724 107.192 38.8724 109.592 38.8724C111.896 38.8724 112.888 38.1364 112.888 35.7044V26.5844H117.656V42.6804H113.208V39.8644H113.048C112.152 41.7204 110.456 43.0004 107.64 43.0004ZM125.364 42.6804H120.596V26.5844H125.044V29.4004H125.236C126.1 27.5764 127.828 26.2644 130.644 26.2644C134.836 26.2644 136.628 29.0484 136.628 32.4724V42.6804H131.828V33.4324C131.828 31.1924 131.092 30.3924 128.66 30.3924C126.356 30.3924 125.364 31.1284 125.364 33.5604V42.6804ZM146.738 42.7444C142.546 42.7444 140.53 41.2084 140.53 37.4004V30.5524H137.97V26.5844H140.658L141.554 22.8404H145.33V26.5844H149.874V30.5524H145.33V36.8564C145.33 38.2644 145.81 38.4244 147.89 38.4244H149.874V42.4244C149.106 42.5844 147.858 42.7444 146.738 42.7444ZM156.575 43.0004C153.727 43.0004 151.519 41.4964 151.519 38.5844C151.519 36.0884 153.311 34.5524 156.639 34.0404L162.143 33.2084V32.6964C162.143 30.8084 161.119 30.4564 159.231 30.4564C157.279 30.4564 156.511 31.0004 156.511 32.6324V32.9844H151.935V32.6324C151.935 28.7924 154.911 26.2644 159.455 26.2644C164.191 26.2644 166.687 28.8564 166.687 33.1444V42.6804H162.239V40.5044H162.047C161.183 41.6884 159.551 43.0004 156.575 43.0004ZM156.095 38.2004C156.095 39.0644 156.767 39.3524 158.175 39.3524C160.127 39.3524 162.143 38.8404 162.143 36.3444L157.535 37.0484C156.543 37.2084 156.095 37.5284 156.095 38.2004ZM173.981 42.6804H169.533V21.2404H174.301V28.8244H174.493C175.229 27.4804 176.957 26.2644 179.389 26.2644C183.805 26.2644 186.141 29.5604 186.141 34.6484C186.141 39.7044 183.805 43.0004 179.421 43.0004C176.925 43.0004 175.005 42.0404 174.141 40.3124H173.981V42.6804ZM174.301 35.9284C174.301 38.1044 175.581 38.9044 177.853 38.9044C180.605 38.9044 181.373 37.5604 181.373 34.6484C181.373 31.7044 180.637 30.3604 177.853 30.3604C175.581 30.3604 174.301 31.1604 174.301 33.3364V35.9284ZM192.826 24.7604H188.122L188.058 21.2404H192.826V24.7604ZM192.922 42.6804H188.122V26.5844H192.922V42.6804ZM200.364 42.6804H195.596V21.2404H200.364V42.6804ZM207.826 24.7604H203.122L203.058 21.2404H207.826V24.7604ZM207.922 42.6804H203.122V26.5844H207.922V42.6804ZM217.926 42.7444C213.734 42.7444 211.718 41.2084 211.718 37.4004V30.5524H209.158V26.5844H211.846L212.742 22.8404H216.518V26.5844H221.062V30.5524H216.518V36.8564C216.518 38.2644 216.998 38.4244 219.078 38.4244H221.062V42.4244C220.294 42.5844 219.046 42.7444 217.926 42.7444ZM226.237 48.1204C225.149 48.1204 223.965 47.9284 223.293 47.7684V43.8004H225.981C227.197 43.8004 227.645 43.6404 228.125 42.6164L228.413 42.0084L221.661 26.5844H227.005L229.629 33.3044L230.781 36.4084H231.133L232.125 33.3044L234.397 26.5844H239.741L232.573 43.8004C231.197 47.0964 229.405 48.1204 226.237 48.1204Z" fill="black"/>
</svg>
