<svg width="118" height="86" viewBox="0 0 118 86" fill="none" xmlns="http://www.w3.org/2000/svg">
<rect x="0.595737" y="24.0613" width="105" height="62" rx="31" transform="rotate(-12.4051 0.595737 24.0613)" fill="#99D5D9"/>
<rect x="0.595737" y="24.0613" width="105" height="62" rx="31" transform="rotate(-12.4051 0.595737 24.0613)" stroke="black"/>
<path d="M43.807 57.0489L36.9313 58.5612L28.1064 38.5498L33.5444 37.3537L37.2144 46.4414L39.4836 53.1834L39.8274 53.1077L39.5896 45.919L39.9825 35.9376L46.6394 34.4733L51.1707 43.3061L54.0162 49.9868L54.36 49.9112L53.5771 42.7768L53.1087 33.0504L58.4217 31.8817L58.8084 53.7492L51.964 55.2547L47.3908 46.5294L44.5271 40.2131L44.2146 40.2818L44.2655 47.2168L43.807 57.0489ZM64.9162 34.0574L60.3221 35.0679L59.5034 31.6438L64.1601 30.6195L64.9162 34.0574ZM68.8596 51.5384L64.1717 52.5695L60.7139 36.8493L65.4018 35.8182L68.8596 51.5384ZM76.1271 49.9398L71.4704 50.9641L68.0127 35.2439L72.3568 34.2884L72.9618 37.0386L73.1493 36.9974C73.6013 35.0303 75.0071 33.3778 77.7573 32.7728C81.8515 31.8723 84.1997 34.2063 84.9352 37.5504L87.1281 47.5201L82.4402 48.5512L80.4535 39.5191C79.9723 37.3314 79.0817 36.7082 76.7064 37.2307C74.4562 37.7256 73.6455 38.6575 74.1679 41.0327L76.1271 49.9398Z" fill="black"/>
</svg>
