<svg width="148" height="154" viewBox="0 0 148 154" fill="none" xmlns="http://www.w3.org/2000/svg">
<rect x="47.6459" y="0.745759" width="149" height="62" rx="31" transform="rotate(48.2578 47.6459 0.745759)" fill="#EFC5C5"/>
<rect x="47.6459" y="0.745759" width="149" height="62" rx="31" transform="rotate(48.2578 47.6459 0.745759)" stroke="black"/>
<path d="M39.225 54.1219C35.0279 49.4182 34.9993 45.541 38.533 42.3879L38.8434 42.1109L41.9753 45.6208L41.7365 45.8339C39.9696 47.4104 40.0434 48.5025 42.6213 51.3916C44.4323 53.4211 45.2856 53.5603 46.36 52.6016C47.4345 51.6429 47.6035 51.0633 45.9828 48.478L43.9702 45.2131C41.7685 41.6882 42.17 39.014 44.6532 36.7983C47.0886 34.6252 51.098 34.2641 55.1886 38.8485C59.2578 43.4089 58.5984 47.4282 55.4228 50.2618L55.2318 50.4322L52.0787 46.8985L52.3413 46.6641C54.0127 45.1728 53.944 43.9903 51.8348 41.6266C50.0026 39.5732 48.9737 39.3333 47.9709 40.2281C46.9442 41.1442 47.0889 41.787 48.3926 43.969L50.3787 47.3003C52.738 51.2422 51.9938 53.9648 49.6539 56.0527C47.099 58.3324 43.2729 58.6585 39.225 54.1219ZM49.6718 65.3492L46.4974 61.7916L58.5074 51.0752L61.4688 54.394L59.3676 56.2689L59.4954 56.4121C61.4316 55.8424 63.5185 56.2105 65.3507 58.2639C67.1829 60.3173 67.3596 62.3898 66.4835 64.2437L66.59 64.3631C68.4998 63.8598 70.5917 64.1376 72.5731 66.3581C75.3427 69.4621 74.3946 72.5811 71.8398 74.8607L64.2231 81.657L61.0274 78.0755L67.9277 71.9184C69.5991 70.427 69.7486 69.393 68.1934 67.65C66.7446 66.0263 65.6015 65.8026 63.8585 67.3579L56.9581 73.515L53.7624 69.9335L60.6627 63.7764C62.3341 62.285 62.4623 61.2271 60.9284 59.508C59.4796 57.8844 58.3152 57.6368 56.6199 59.1494L49.6718 65.3492ZM68.7981 87.2649C66.902 85.1399 66.5541 82.491 68.7269 80.5523C70.5893 78.8905 72.9285 79.2049 75.5262 81.3472L79.8115 84.9001L80.1935 84.5592C81.6022 83.3022 81.1831 82.3038 79.9261 80.8951C78.6265 79.4386 77.7093 79.2278 76.4916 80.3143L76.2289 80.5487L73.1823 77.1343L73.445 76.8999C76.3102 74.3433 80.1778 74.8808 83.2031 78.2713C86.3562 81.805 86.084 85.3931 82.8845 88.248L75.7693 94.5969L72.8079 91.278L74.4315 89.8293L74.3037 89.686C72.845 89.8296 70.7795 89.4854 68.7981 87.2649ZM72.06 83.711C71.4154 84.2862 71.6479 84.9794 72.5853 86.0299C73.8849 87.4864 75.6092 88.6498 77.4715 86.988L73.8783 84.0185C73.0985 83.3848 72.5615 83.2636 72.06 83.711ZM82.0923 102.164C78.7261 98.3912 78.4943 95.2957 81.4073 92.6965L81.4789 92.6326L84.5255 96.047L84.0241 96.4944C83.1407 97.2827 83.4184 97.9784 84.9736 99.7214C86.2732 101.178 86.7012 101.225 87.2981 100.692C87.9428 100.117 87.7877 99.655 86.6468 97.7996L85.3619 95.6866C83.6825 92.9394 83.5349 90.7552 85.7554 88.7738C87.9759 86.7925 91.171 87.201 94.2176 90.6154C96.8381 93.5522 97.4559 97.0323 94.7579 99.4398L94.4236 99.738L91.377 96.3237L91.7112 96.0254C92.4992 95.3223 92.6307 94.6046 91.2672 93.0765C89.9889 91.6438 89.3802 91.5865 88.8072 92.0979C88.2341 92.6092 88.2587 92.9732 89.2505 94.6615L90.7569 97.2629C92.5377 100.22 92.329 102.293 90.3711 104.04C88.1267 106.043 85.0536 105.483 82.0923 102.164ZM91.4912 112.217L88.3167 108.659L104.314 94.3846L107.489 97.9423L101.639 103.162L101.767 103.305C103.464 102.949 105.615 103.388 107.319 105.298C110.089 108.402 109.162 111.545 106.607 113.825L98.9905 120.621L95.7948 117.04L102.695 110.883C104.367 109.391 104.473 108.309 102.854 106.495C101.32 104.776 100.087 104.547 98.2722 106.166L91.4912 112.217Z" fill="black"/>
</svg>
