<svg width="151" height="64" viewBox="0 0 151 64" fill="none" xmlns="http://www.w3.org/2000/svg">
<rect x="0.5" y="1.18042" width="150" height="62" rx="31" fill="#D9CB99"/>
<rect x="0.5" y="1.18042" width="150" height="62" rx="31" stroke="black"/>
<path d="M35.296 43.0004C28.864 43.0004 25.024 38.6484 25.024 31.9604C25.024 25.2724 28.864 20.9204 35.296 20.9204C41.632 20.9204 45.056 24.2484 45.056 29.5604V29.8484H39.936V29.6884C39.936 26.6164 38.656 25.5604 35.264 25.5604C31.648 25.5604 30.144 26.8724 30.144 31.9604C30.144 37.0484 31.648 38.3604 35.264 38.3604C38.656 38.3604 39.936 37.3044 39.936 34.2324V34.0724H45.056V34.3604C45.056 39.6724 41.632 43.0004 35.296 43.0004ZM52.3338 42.6804H47.5658V26.5844H52.0138V29.1764H52.2058C53.0058 27.5444 54.4458 26.2644 56.7178 26.2644C60.0778 26.2644 61.3258 28.7604 61.3258 31.9924V33.4644H56.5578V32.6004C56.5578 30.8724 56.0138 30.3284 54.5098 30.3284C53.0378 30.3284 52.3338 30.8404 52.3338 32.6004V42.6804ZM70.71 43.0004C65.174 43.0004 62.646 39.7684 62.646 34.6804C62.646 29.5284 65.718 26.2644 70.742 26.2644C75.574 26.2644 78.422 29.1444 78.422 33.3364C78.422 34.2324 78.294 35.1604 78.198 35.7044H67.158C67.254 37.9444 68.15 38.8404 70.774 38.8404C72.694 38.8404 73.526 38.4244 73.526 37.4324V37.2404H78.262V37.5604C78.262 40.9844 75.318 43.0004 70.71 43.0004ZM70.582 30.2004C68.278 30.2004 67.382 31.0964 67.19 32.7924H73.814C73.91 31.1284 72.822 30.2004 70.582 30.2004ZM85.295 43.0004C82.447 43.0004 80.239 41.4964 80.239 38.5844C80.239 36.0884 82.031 34.5524 85.359 34.0404L90.863 33.2084V32.6964C90.863 30.8084 89.839 30.4564 87.951 30.4564C85.999 30.4564 85.231 31.0004 85.231 32.6324V32.9844H80.655V32.6324C80.655 28.7924 83.631 26.2644 88.175 26.2644C92.911 26.2644 95.407 28.8564 95.407 33.1444V42.6804H90.959V40.5044H90.767C89.903 41.6884 88.271 43.0004 85.295 43.0004ZM84.815 38.2004C84.815 39.0644 85.487 39.3524 86.895 39.3524C88.847 39.3524 90.863 38.8404 90.863 36.3444L86.255 37.0484C85.263 37.2084 84.815 37.5284 84.815 38.2004ZM105.552 42.7444C101.36 42.7444 99.3443 41.2084 99.3443 37.4004V30.5524H96.7843V26.5844H99.4723L100.368 22.8404H104.144V26.5844H108.688V30.5524H104.144V36.8564C104.144 38.2644 104.624 38.4244 106.704 38.4244H108.688V42.4244C107.92 42.5844 106.672 42.7444 105.552 42.7444ZM117.96 43.0004C112.424 43.0004 109.896 39.7684 109.896 34.6804C109.896 29.5284 112.968 26.2644 117.992 26.2644C122.824 26.2644 125.672 29.1444 125.672 33.3364C125.672 34.2324 125.544 35.1604 125.448 35.7044H114.408C114.504 37.9444 115.4 38.8404 118.024 38.8404C119.944 38.8404 120.776 38.4244 120.776 37.4324V37.2404H125.512V37.5604C125.512 40.9844 122.568 43.0004 117.96 43.0004ZM117.832 30.2004C115.528 30.2004 114.632 31.0964 114.44 32.7924H121.064C121.16 31.1284 120.072 30.2004 117.832 30.2004Z" fill="black"/>
</svg>
