<svg width="190" height="64" viewBox="0 0 190 64" fill="none" xmlns="http://www.w3.org/2000/svg">
<rect x="1.02954" y="1.00464" width="188" height="62" rx="31" fill="#99D5D9"/>
<rect x="1.02954" y="1.00464" width="188" height="62" rx="31" stroke="black"/>
<path d="M34.2255 42.5046H26.0335V21.0646H34.2255C41.1055 21.0646 45.3295 25.0646 45.3295 31.7846C45.3295 38.5046 41.1055 42.5046 34.2255 42.5046ZM34.1615 25.3846H30.8335V38.1846H34.1615C38.5135 38.1846 40.1775 36.8726 40.1775 31.7846C40.1775 26.6966 38.5135 25.3846 34.1615 25.3846ZM52.2948 24.5846H47.5908L47.5268 21.0646H52.2948V24.5846ZM52.3908 42.5046H47.5908V26.4086H52.3908V42.5046ZM62.0735 42.8246C57.0175 42.8246 54.5535 40.9366 54.5535 37.0326V36.9366H59.1295V37.6086C59.1295 38.7926 59.8335 39.0486 62.1695 39.0486C64.1215 39.0486 64.4415 38.7606 64.4415 37.9606C64.4415 37.0966 63.9935 36.9046 61.8495 36.5206L59.4175 36.0726C56.2495 35.4966 54.5215 34.1526 54.5215 31.1766C54.5215 28.2006 56.9535 26.0886 61.5295 26.0886C65.4655 26.0886 68.4735 27.9446 68.4735 31.5606V32.0086H63.8975V31.5606C63.8975 30.5046 63.4495 29.9286 61.4015 29.9286C59.4815 29.9286 59.0335 30.3446 59.0335 31.1126C59.0335 31.8806 59.3215 32.1046 61.2415 32.4886L64.1855 33.0966C67.5775 33.7366 68.9855 35.2726 68.9855 37.8966C68.9855 40.9046 66.5215 42.8246 62.0735 42.8246ZM78.7418 42.8246C73.4298 42.8246 70.5818 39.5926 70.5818 34.5046C70.5818 29.3526 73.6218 26.0886 78.9978 26.0886C83.2858 26.0886 86.4218 28.7126 86.4218 32.6806V33.0646H81.6218V32.8086C81.6218 30.9846 80.5978 30.3766 78.6138 30.3766C76.3098 30.3766 75.3178 31.4646 75.3178 34.4726C75.3178 37.4486 76.3098 38.5366 78.6138 38.5366C80.5978 38.5366 81.6218 37.9286 81.6218 36.1046V35.8486H86.4218V36.2326C86.4218 40.2006 83.1898 42.8246 78.7418 42.8246ZM93.1073 24.5846H88.4033L88.3393 21.0646H93.1073V24.5846ZM93.2033 42.5046H88.4033V26.4086H93.2033V42.5046ZM100.389 47.8806H95.5885V26.4086H100.037V28.7766H100.197C101.061 27.0486 102.917 26.0886 105.317 26.0886C109.861 26.0886 112.229 29.3846 112.229 34.4726C112.229 39.5286 109.765 42.8246 105.413 42.8246C102.853 42.8246 101.285 41.7686 100.549 40.3926H100.389V47.8806ZM100.389 35.7526C100.389 37.9286 101.637 38.7286 103.909 38.7286C106.693 38.7286 107.429 37.3846 107.429 34.4726C107.429 31.5286 106.693 30.1846 103.909 30.1846C101.637 30.1846 100.389 30.9846 100.389 33.1606V35.7526ZM119.457 42.5046H114.689V21.0646H119.457V42.5046ZM126.92 24.5846H122.216L122.152 21.0646H126.92V24.5846ZM127.016 42.5046H122.216V26.4086H127.016V42.5046ZM134.457 42.5046H129.689V26.4086H134.137V29.2246H134.329C135.193 27.4006 136.921 26.0886 139.737 26.0886C143.929 26.0886 145.721 28.8726 145.721 32.2966V42.5046H140.921V33.2566C140.921 31.0166 140.185 30.2166 137.753 30.2166C135.449 30.2166 134.457 30.9526 134.457 33.3846V42.5046ZM155.927 42.8246C150.391 42.8246 147.863 39.5926 147.863 34.5046C147.863 29.3526 150.935 26.0886 155.959 26.0886C160.791 26.0886 163.639 28.9686 163.639 33.1606C163.639 34.0566 163.511 34.9846 163.415 35.5286H152.375C152.471 37.7686 153.367 38.6646 155.991 38.6646C157.911 38.6646 158.743 38.2486 158.743 37.2566V37.0646H163.479V37.3846C163.479 40.8086 160.535 42.8246 155.927 42.8246ZM155.799 30.0246C153.495 30.0246 152.599 30.9206 152.407 32.6166H159.031C159.127 30.9526 158.039 30.0246 155.799 30.0246Z" fill="black"/>
</svg>
