<svg width="159" height="159" viewBox="0 0 159 159" fill="none" xmlns="http://www.w3.org/2000/svg">
<path d="M77.1416 2.90271C77.4231 -0.121729 81.8386 -0.121717 82.1201 2.9027L85.0695 34.593C85.3921 38.0585 90.0258 38.9802 91.65 35.902L106.502 7.7526C107.92 5.06614 111.999 6.75584 111.102 9.65781L101.699 40.0646C100.671 43.3897 104.6 46.0145 107.278 43.7921L131.772 23.4692C134.11 21.5297 137.232 24.6519 135.292 26.9896L114.97 51.4836C112.747 54.1621 115.372 58.0904 118.697 57.0622L149.104 47.6598C152.006 46.7625 153.696 50.8419 151.009 52.2593L122.86 67.1116C119.781 68.7358 120.703 73.3696 124.169 73.6921L155.859 76.6416C158.883 76.9231 158.883 81.3386 155.859 81.6201L124.169 84.5695C120.703 84.8921 119.781 89.5258 122.86 91.15L151.009 106.002C153.696 107.42 152.006 111.499 149.104 110.602L118.697 101.199C115.372 100.171 112.747 104.1 114.97 106.778L135.292 131.272C137.232 133.61 134.11 136.732 131.772 134.792L107.278 114.47C104.6 112.247 100.671 114.872 101.699 118.197L111.102 148.604C111.999 151.506 107.92 153.196 106.502 150.509L91.65 122.36C90.0258 119.281 85.3921 120.203 85.0695 123.669L82.1201 155.359C81.8386 158.383 77.4231 158.383 77.1416 155.359L74.1921 123.669C73.8696 120.203 69.2358 119.281 67.6116 122.36L52.7593 150.509C51.3419 153.196 47.2625 151.506 48.1598 148.604L57.5622 118.197C58.5905 114.872 54.6621 112.247 51.9836 114.47L27.4896 134.792C25.1519 136.732 22.0297 133.61 23.9692 131.272L44.2921 106.778C46.5145 104.1 43.8897 100.171 40.5645 101.199L10.1578 110.602C7.25587 111.499 5.56614 107.42 8.25262 106.002L36.402 91.15C39.4803 89.5258 38.5585 84.8921 35.093 84.5695L3.40271 81.6201C0.378271 81.3386 0.378283 76.9231 3.4027 76.6416L35.093 73.6921C38.5585 73.3696 39.4802 68.7358 36.402 67.1116L8.25263 52.2593C5.56613 50.8419 7.25589 46.7625 10.1578 47.6598L40.5646 57.0622C43.8897 58.0905 46.5145 54.1621 44.2921 51.4836L23.9692 26.9896C22.0297 24.6519 25.1519 21.5297 27.4896 23.4692L51.9836 43.7921C54.6621 46.0145 58.5904 43.3897 57.5622 40.0645L48.1598 9.65781C47.2625 6.75587 51.3419 5.06615 52.7593 7.75262L67.6116 35.902C69.2358 38.9803 73.8696 38.0585 74.1921 34.593L77.1416 2.90271Z" fill="#9747FF" stroke="black"/>
</svg>
